<svg xmlns="http://www.w3.org/2000/svg" viewBox="0 0 64 64" role="img" aria-label="Mood check-in">
  <circle cx="32" cy="32" r="28" fill="#fce7f3"/>
  <path d="M32 50c-8.5-5.6-17-12.7-17-21.1 0-5.3 4.1-9.4 9.3-9.4 3 0 5.8 1.5 7.7 4 1.9-2.5 4.7-4 7.7-4 5.2 0 9.3 4.1 9.3 9.4 0 8.4-8.5 15.5-17 21.1z" fill="#db2777"/>
  <path d="M23 29c1.3-1.2 3.2-1.2 4.5 0M36.5 29c1.3-1.2 3.2-1.2 4.5 0" fill="none" stroke="#831843" stroke-width="3" stroke-linecap="round"/>
  <path d="M25 37c4.5 3.4 9.5 3.4 14 0" fill="none" stroke="#831843" stroke-width="3" stroke-linecap="round"/>
</svg>
