<svg xmlns="http://www.w3.org/2000/svg" viewBox="0 0 64 64" role="img" aria-label="Fortune cookie">
  <path fill="#f8d38d" d="M8 38c0-12.2 10.5-22 23.4-22 5.6 0 10.8 1.9 14.8 5 6.8.8 10.8 5.2 10.8 10.7 0 9-10.2 16.3-22.8 16.3H20.5C13.6 48 8 43.5 8 38Z"/>
  <path fill="#e7a94d" d="M31 19c-8.8 2.8-14.5 9.7-14.5 17.3 0 4 1.8 7.7 4.8 10.5-7.4-.2-12.8-4-12.8-8.8 0-9.9 9.8-18 22.5-19Z" opacity=".45"/>
  <path fill="#fff7ed" d="M31.5 31.5c6.2-3.4 12.4-5.1 20-4.8 1.4.1 2.3 1.6 1.6 2.8-2.8 4.7-8.1 8.6-14.6 10.2-2.7.7-5.4-.8-6.3-3.4l-1.4-3.8c-.1-.4.1-.8.7-1Z"/>
  <path fill="#f59e0b" d="M19 47.6c5.9-2.7 9.8-7.8 12.2-15.8l2.6 6.9c.9 2.3 3.1 3.9 5.6 3.9-3.3 3.3-8.2 5.4-14.2 5.4H20.5c-.5 0-1 0-1.5-.4Z" opacity=".5"/>
  <path fill="none" stroke="#b7791f" stroke-linecap="round" stroke-linejoin="round" stroke-width="3" d="M17 37c3.6 4.5 8.2 4.5 13.8-5.1M34 39c4.6 2 13.7-1.7 18.3-9.9"/>
</svg>
