<svg xmlns="http://www.w3.org/2000/svg" viewBox="0 0 64 64" role="img" aria-label="Morning and evening routine">
  <circle cx="22" cy="22" r="10" fill="#FBBF24"/>
  <path d="M22 6v6M22 32v6M6 22h6M32 22h6M10.7 10.7l4.2 4.2M29.1 29.1l4.2 4.2M33.3 10.7l-4.2 4.2M14.9 29.1l-4.2 4.2" stroke="#F59E0B" stroke-width="4" stroke-linecap="round"/>
  <path d="M45 16c-8 3-13 10-13 18 0 10 8 18 18 18 3 0 6-.7 8-2-3 5-9 8-16 8-12 0-22-10-22-22 0-10 7-18 16-21 3-.9 6-.6 9 1z" fill="#6366F1"/>
  <path d="M43 28l2.1 4.2 4.7.7-3.4 3.3.8 4.7-4.2-2.2-4.2 2.2.8-4.7-3.4-3.3 4.7-.7L43 28z" fill="#E0E7FF"/>
</svg>
